<?xml version="1.0" encoding="UTF-8"?><svg id="project" xmlns="http://www.w3.org/2000/svg" xmlns:xlink="http://www.w3.org/1999/xlink" viewBox="0 0 600 600"><defs><style>.cls-1{fill:#fff;}.cls-2{fill:url(#Gradient_bez_nazwy_172);}</style><linearGradient id="Gradient_bez_nazwy_172" x1="211.16" y1="66.25" x2="390.39" y2="533.16" gradientTransform="matrix(1, 0, 0, 1, 0, 0)" gradientUnits="userSpaceOnUse"><stop offset="0" stop-color="#254ca4"/><stop offset=".12" stop-color="#344ead"/><stop offset=".72" stop-color="#8358df"/><stop offset="1" stop-color="#a25df3"/></linearGradient></defs><g id="pwa_scaled"><circle id="white" class="cls-1" cx="300" cy="300" r="249.5"/><path id="violet" class="cls-2" d="M397.79,273.48c-19.64,0-48.17-.8-85.61-2.4,.68-38.58,7.88-66.49,21.57-83.74,15.75-20.42,37.44-30.64,65.07-30.64,25.34,0,45.26,8.4,59.76,25.19,14.5,16.8,21.75,41.19,21.75,73.19l-.34,16c-34.48,1.6-61.87,2.4-82.19,2.4ZM153.96,138.56c10.5-4.11,26.25-6.16,47.26-6.16s38.92,3.64,54.45,10.9c15.52,7.27,30.14,19.54,43.83,36.8,19.86-18.4,38.07-30.95,54.62-37.65,16.55-6.7,35.67-10.05,57.36-10.05,41.09,0,73.17,11.27,96.23,33.81,3.98,3.89,7.61,8.04,10.9,12.45-42.68-76.73-124.58-128.65-218.61-128.65-89.19,0-167.45,46.71-211.7,116.99l65.66-28.44Zm385.6,89.77c1.83,9.89,2.74,20.47,2.74,31.74,0,8.01-.57,16.59-1.71,25.74-34.25,8.45-82.19,12.67-143.83,12.67l-84.59-.68c.45,44.06,11.64,77.97,33.56,101.71,21.92,23.75,50.34,35.61,85.27,35.61,14.84,0,30.25-2.62,46.23-7.88,15.62-5.13,33.42-13.17,50.21-23.34,14.48-31.64,22.56-66.82,22.56-103.9,0-24.91-3.66-48.97-10.45-71.68ZM62.87,339.47c6.85-14.2,14.27-23.94,22.26-29.21,13.01-8.7,34.3-16.66,63.87-23.88,29.56-7.21,65.69-11.67,108.39-14.66-2.28-36.62-8.79-62.57-19.52-76.59-14.16-18.31-34.13-27.47-59.93-27.47-8.68,0-18.21,1.46-28.59,4.37-10.39,2.91-21.75,7.28-34.07,13.1l-17.81,43.15-18.15-4.45-7.38-26.35c-14.09,31.28-21.93,65.99-21.93,102.52,0,19.48,2.23,38.44,6.45,56.64,1.63-5.93,3.76-11.66,6.42-17.18Zm399.64,122.19c-19.18,5.82-38.7,8.73-58.56,8.73-59.59,0-103.88-24.72-132.87-74.17-27.4,18.91-49.15,50.91-84.24,67-8.27,3.79-12.9,4.59-19.97,5.85-7.08,1.25-16.67,1.33-22.83,1.33-11.03,0-21.16-1.28-30.42-3.79,45.78,51.18,112.32,83.41,186.39,83.41,84.31,0,158.87-41.74,204.15-105.67-13.7,7.28-27.58,13.06-41.65,17.33ZM116.46,350.67c-2.86,7.56-4.28,14.99-4.28,22.31,0,15.34,5.25,28.22,15.75,38.63,10.5,10.41,24.08,15.62,40.75,15.62,15.75,0,30.87-3.79,45.37-11.38,14.5-7.58,28.94-20.22,43.32-37.92v-81.52c-48.17,2.29-90.98,12.71-128.42,31.24-5.48,7.78-9.65,15.45-12.5,23.01Z"/></g></svg>