<?xml version="1.0" encoding="UTF-8"?><svg id="a" xmlns="http://www.w3.org/2000/svg" xmlns:xlink="http://www.w3.org/1999/xlink" viewBox="0 0 198.48 58.32"><defs><style>.d{fill:#fff;}.e{filter:url(#b);}.f{fill:#8fd2ff;}</style><filter id="b" filterUnits="userSpaceOnUse"><feOffset dx="0" dy="1"/><feGaussianBlur result="c" stdDeviation="2"/><feFlood flood-color="#000" flood-opacity=".75"/><feComposite in2="c" operator="in"/><feComposite in="SourceGraphic"/></filter></defs><g class="e"><path class="d" d="M27.7,10.51c3.04,0,5.22,.57,6.56,1.7,.2,.18,.32,.32,.36,.41,.03,.09,.04,.24,.02,.44-.02,.27-.25,.86-.68,1.75-.43,.9-.75,1.44-.95,1.65l-.31,.17c-.09,0-.31-.08-.65-.24-1.36-.59-2.54-.88-3.54-.88-.79,0-1.55,.23-2.28,.68-.73,.45-1.27,1.05-1.63,1.8-.25,.54-.37,1-.37,1.36s.01,.61,.03,.75c.05,.84,.19,1.47,.44,1.9,.77,1.22,2.11,1.84,4.01,1.84,.68,0,1.45-.12,2.31-.37,.27-.07,.41-.26,.41-.58,0-.25-.05-.42-.14-.51-.11-.04-.56-.11-1.33-.2-.82-.04-1.35-.16-1.61-.36-.26-.19-.39-.58-.39-1.17,0-.39,.01-.65,.03-.78,.11-.88,.34-1.39,.68-1.53,.27-.09,1.51-.14,3.71-.14s3.35,.05,3.6,.14c.11,.02,.26,.16,.44,.41,.07,.14,.17,1.08,.31,2.84,.14,1.76,.2,3.03,.2,3.82,0,.29-.01,.45-.03,.48-.09,.41-.53,.84-1.31,1.31-.78,.46-1.74,.87-2.87,1.21s-2.27,.53-3.4,.58h-.68c-2.02,0-3.84-.41-5.47-1.24-1.63-.83-2.97-2.02-4.01-3.59-.48-.7-.79-1.31-.94-1.82-.15-.51-.22-1.22-.22-2.12,0-2.72,.75-4.89,2.24-6.51,1.5-1.62,3.48-2.65,5.95-3.08,.34-.07,.84-.1,1.5-.1Z"/><path class="d" d="M48.17,11.53c1.99,0,3.2,.03,3.6,.1,.43,.07,.73,.14,.9,.22,.17,.08,.28,.21,.34,.39,.06,.18,.08,.5,.08,.95v.44c0,.77-.02,1.32-.05,1.65-.03,.33-.11,.58-.24,.77-.12,.18-.35,.33-.66,.44-.54,.18-1.46,.27-2.75,.27-.25,0-.48-.01-.68-.03h-.78c-.36-.02-.96-.03-1.8-.03-.52,0-.85,.05-.99,.14-.14,.09-.23,.32-.27,.68l-.07,.51,2.55,.07c1.29,.02,2.18,.1,2.65,.24,.36,.11,.61,.35,.75,.71,.14,.36,.22,.91,.24,1.63,.02,.16,.03,.41,.03,.75s-.1,.61-.31,.82l-.34,.34h-5.13l-.14,.51c-.09,.25-.14,.42-.14,.51,0,.23,.49,.34,1.46,.34,1.09,0,1.86-.01,2.31-.03,.52-.02,1.52-.03,2.99-.03,.63,0,1.03,.02,1.19,.07,.16,.05,.28,.19,.37,.44,.09,.2,.14,.64,.14,1.29,0,.54-.02,1.12-.05,1.73-.03,.61-.07,1.02-.12,1.22-.02,.2-.11,.36-.27,.48-.18,.11-2.53,.18-7.04,.2h-3.33c-2.31,0-3.56-.07-3.74-.2-.27-.16-.44-.35-.51-.58-.05-.18-.07-.73-.07-1.63,0-1.88,.06-4.36,.17-7.43,.11-3.07,.24-5.24,.37-6.51,.07-.61,.24-.99,.51-1.12,.27-.11,1.12-.18,2.55-.2,2.18-.07,4.26-.1,6.26-.1Z"/><path class="d" d="M57.14,11.3h.78c.82,.02,1.41,.06,1.78,.12,.37,.06,.67,.18,.9,.36,.23,.18,.51,.5,.85,.95l4.28,5.71c.09,.14,.16,.18,.2,.14s.11-.77,.2-2.18c.02-.18,.03-.44,.03-.78,.11-1.5,.22-2.51,.31-3.04,.09-.53,.27-.89,.54-1.07,.27-.18,.75-.27,1.43-.27l1.67,.03c.95,0,1.56,.05,1.84,.14,.29,.09,.48,.31,.54,.65,.09,.59,.15,2.71,.17,6.36,0,.7,.01,1.3,.03,1.8v1.6c0,2.45-.07,4.11-.2,5-.09,.59-.21,1-.36,1.24-.15,.24-.35,.39-.61,.46s-.74,.15-1.44,.24c-.97,.11-1.76,.17-2.35,.17-.45,0-.74-.02-.87-.07-.12-.04-.28-.17-.46-.37-.32-.32-.81-.99-1.46-2.01-2.27-3.4-3.46-5.11-3.57-5.13-.05,0-.09,.53-.14,1.6-.11,3.26-.27,5-.48,5.2-.23,.23-.88,.34-1.97,.34-.16,0-.31-.01-.44-.03h-.51c-.23-.02-.67-.05-1.33-.08-.66-.03-1.03-.15-1.1-.34-.08-.19-.14-.57-.19-1.14-.07-.79-.1-3.18-.1-7.17s.02-6.15,.07-7.11c.02-.68,.2-1.09,.54-1.22,.23-.04,.69-.07,1.39-.07Z"/><path class="d" d="M84.21,11.53c1.99,0,3.2,.03,3.6,.1,.43,.07,.73,.14,.9,.22,.17,.08,.28,.21,.34,.39,.06,.18,.08,.5,.08,.95v.44c0,.77-.02,1.32-.05,1.65-.03,.33-.11,.58-.24,.77-.12,.18-.35,.33-.66,.44-.54,.18-1.46,.27-2.75,.27-.25,0-.48-.01-.68-.03h-.78c-.36-.02-.96-.03-1.8-.03-.52,0-.85,.05-.99,.14-.14,.09-.23,.32-.27,.68l-.07,.51,2.55,.07c1.29,.02,2.18,.1,2.65,.24,.36,.11,.61,.35,.75,.71,.14,.36,.22,.91,.24,1.63,.02,.16,.03,.41,.03,.75s-.1,.61-.31,.82l-.34,.34h-5.13l-.14,.51c-.09,.25-.14,.42-.14,.51,0,.23,.49,.34,1.46,.34,1.09,0,1.86-.01,2.31-.03,.52-.02,1.52-.03,2.99-.03,.63,0,1.03,.02,1.19,.07,.16,.05,.28,.19,.37,.44,.09,.2,.14,.64,.14,1.29,0,.54-.02,1.12-.05,1.73-.03,.61-.07,1.02-.12,1.22-.02,.2-.11,.36-.27,.48-.18,.11-2.53,.18-7.04,.2h-3.33c-2.31,0-3.56-.07-3.74-.2-.27-.16-.44-.35-.51-.58-.05-.18-.07-.73-.07-1.63,0-1.88,.06-4.36,.17-7.43,.11-3.07,.24-5.24,.37-6.51,.07-.61,.24-.99,.51-1.12,.27-.11,1.12-.18,2.55-.2,2.18-.07,4.26-.1,6.26-.1Z"/><path class="d" d="M96.11,11.81c2.36,0,4.07,.05,5.13,.15,1.06,.1,1.9,.33,2.52,.7,.61,.36,1.25,.98,1.9,1.84,.88,1.16,1.33,2.31,1.33,3.47,0,.32-.03,.67-.1,1.05-.25,1.45-.93,2.6-2.04,3.43l-.44,.37,.92,2.21c.68,1.7,1.02,2.69,1.02,2.96,0,.02-.02,.1-.07,.24-.05,.09-.67,.22-1.87,.39-1.2,.17-2.1,.25-2.69,.25-.5,0-.85-.1-1.05-.29-.2-.19-.44-.64-.71-1.34-.59-1.56-1-2.36-1.22-2.38l-.54-.07c-.18,0-.31,.05-.37,.14-.07,.07-.15,.69-.24,1.87-.07,.66-.12,1.16-.17,1.5-.07,.2-.19,.39-.37,.54-.23,.18-.69,.27-1.39,.27h-1.46l-1.09-.03c-.63,0-1.01-.01-1.12-.03-.27-.04-.45-.14-.54-.27-.16-.16-.24-.6-.24-1.33s.04-1.45,.14-2.18c.16-1.59,.33-4.9,.51-9.93,.04-1.95,.15-3,.31-3.16,.14-.14,.56-.24,1.26-.31,.5-.05,1.41-.07,2.72-.07Zm2.31,5.07c-.36-.05-.57-.06-.61-.03-.11,.05-.18,.14-.2,.27-.07,.2-.1,.66-.1,1.36,0,.91,.04,1.39,.14,1.46,.09,.07,.31,.1,.65,.1,.41,0,.74-.05,.99-.14,.25-.09,.51-.27,.78-.54,.29-.29,.45-.52,.48-.68,.02-.02,.03-.09,.03-.2,0-.59-.31-1.02-.92-1.29-.39-.18-.79-.28-1.22-.31Z"/><path class="d" d="M116.06,11.4c.86,0,1.76,.03,2.69,.08,.93,.06,1.52,.14,1.77,.25,.23,.09,.46,.42,.71,.99,.27,.61,.75,1.85,1.43,3.71,.91,2.31,1.67,4.17,2.28,5.58,1.47,3.49,2.21,5.51,2.21,6.05,0,.23-.14,.43-.41,.61-.5,.34-1.54,.51-3.13,.51-.11,0-.2-.01-.27-.03h-.24c-.48-.05-.82-.18-1.04-.39-.22-.22-.41-.63-.59-1.24l-.27-.88-.78-.07c-.82-.09-1.97-.14-3.47-.14-.75,0-1.2,.01-1.36,.03l-1.09,.1-.34,.95c-.2,.57-.37,.93-.51,1.09-.14,.16-.4,.27-.78,.34-.41,.07-1.04,.1-1.9,.1s-1.46-.04-1.79-.14c-.33-.09-.49-.32-.49-.68,0-.45,.33-1.6,.99-3.43,.82-2.33,1.56-4.54,2.24-6.63,1.31-4.03,2.32-6.23,3.03-6.6,.27-.11,.65-.17,1.12-.17Zm1.73,5.98c-.07,0-.33,.6-.8,1.8-.46,1.2-.7,1.9-.7,2.11s.6,.31,1.8,.31c.41,0,.71-.02,.92-.07,.2-.04,.31-.16,.31-.34,0-.36-.31-1.24-.92-2.62-.39-.79-.59-1.19-.61-1.19Z"/><path class="d" d="M129.9,11.67c3.47,0,6.92,.07,10.37,.2,1.43,.02,2.27,.15,2.52,.37,.23,.16,.34,.45,.34,.88v.71c-.05,1.72-.22,2.73-.51,3.03l-.34,.34-2.28-.1-2.31-.07,.03,5v2.41c0,1.77-.07,2.88-.2,3.33-.14,.41-.35,.79-.65,1.16l-.37,.37-1.77-.1c-1.72-.11-2.69-.26-2.89-.44-.07-.09-.12-2.02-.17-5.78-.02-3.74-.07-5.64-.14-5.71-.05-.07-.7-.15-1.97-.24-1.41-.09-2.32-.24-2.75-.44-.39-.18-.58-.62-.58-1.33l.03-.34v-.34c.05-.97,.14-1.65,.29-2.02,.15-.37,.44-.65,.87-.83,.18-.04,1.01-.07,2.48-.07Z"/><path class="d" d="M152.65,11.57c2.22,0,4.23,.46,6.04,1.38,1.8,.92,3.08,2.15,3.83,3.69,.52,1.16,.78,2.61,.78,4.35,0,1.09-.18,2.07-.53,2.94-.35,.87-1,1.79-1.96,2.74-1,.97-2.1,1.71-3.31,2.19-1.21,.49-2.43,.73-3.66,.73-.14,0-.26-.01-.37-.03h-.41c-1.75-.09-3.31-.54-4.71-1.36s-2.5-1.9-3.31-3.25c-.82-1.35-1.27-2.83-1.36-4.44v-.54c0-3.38,1.6-5.86,4.79-7.45,.75-.36,1.44-.61,2.07-.75,.66-.14,1.36-.2,2.11-.2Zm.54,5.17c-.11,0-.33,.02-.65,.07-1.13,.39-1.98,1.15-2.55,2.28-.2,.36-.31,.73-.31,1.09,0,.27,.01,.46,.03,.58,.07,.68,.2,1.19,.41,1.53,.73,1.25,1.84,1.92,3.33,2.01h.24c.63,0,1.21-.18,1.72-.54,.51-.36,.91-.8,1.19-1.31,.28-.51,.43-.96,.43-1.34,0-.25-.01-.42-.03-.51-.14-1.72-.83-2.89-2.07-3.5-.43-.23-1.01-.34-1.73-.34Z"/><path class="d" d="M169.99,11.81c2.36,0,4.07,.05,5.13,.15,1.06,.1,1.9,.33,2.52,.7,.61,.36,1.25,.98,1.9,1.84,.88,1.16,1.33,2.31,1.33,3.47,0,.32-.03,.67-.1,1.05-.25,1.45-.93,2.6-2.04,3.43l-.44,.37,.92,2.21c.68,1.7,1.02,2.69,1.02,2.96,0,.02-.02,.1-.07,.24-.05,.09-.67,.22-1.87,.39-1.2,.17-2.1,.25-2.69,.25-.5,0-.85-.1-1.05-.29-.2-.19-.44-.64-.71-1.34-.59-1.56-1-2.36-1.22-2.38l-.54-.07c-.18,0-.31,.05-.37,.14-.07,.07-.15,.69-.24,1.87-.07,.66-.12,1.16-.17,1.5-.07,.2-.19,.39-.37,.54-.23,.18-.69,.27-1.39,.27h-1.46l-1.09-.03c-.63,0-1.01-.01-1.12-.03-.27-.04-.45-.14-.54-.27-.16-.16-.24-.6-.24-1.33s.04-1.45,.14-2.18c.16-1.59,.33-4.9,.51-9.93,.04-1.95,.15-3,.31-3.16,.14-.14,.56-.24,1.26-.31,.5-.05,1.41-.07,2.72-.07Zm2.31,5.07c-.36-.05-.57-.06-.61-.03-.11,.05-.18,.14-.2,.27-.07,.2-.1,.66-.1,1.36,0,.91,.04,1.39,.14,1.46,.09,.07,.31,.1,.65,.1,.41,0,.74-.05,.99-.14,.25-.09,.51-.27,.78-.54,.29-.29,.45-.52,.48-.68,.02-.02,.03-.09,.03-.2,0-.59-.31-1.02-.92-1.29-.39-.18-.79-.28-1.22-.31Z"/><path class="f" d="M10.22,37.85c2.8,0,4.47,.07,5,.2,.43,.11,.64,.4,.64,.88v.12c0,.43-.08,.75-.24,.98-.16,.21-.71,.81-1.66,1.78l-1.78,1.78,.92-.06c.59-.05,1.06-.08,1.42-.08,.31,0,.52,.07,.64,.2,.12,.13,.18,.35,.18,.66v.24c-.01,.08-.02,.18-.02,.3-.03,.56-.07,.95-.12,1.16-.07,.24-.18,.41-.34,.52-.21,.13-1.94,.21-5.18,.24h-.54c-1.32,0-2.11-.13-2.36-.38-.11-.11-.16-.23-.16-.38,0-.17,0-.3,.02-.38,.03-.37,.1-.67,.22-.89,.12-.22,.34-.47,.66-.75,.4-.32,.93-.84,1.59-1.57,.66-.73,.99-1.14,.99-1.25,0-.05-.35-.09-1.06-.12-.52-.01-.87-.05-1.04-.1-.15-.04-.26-.14-.34-.3-.08-.16-.12-.36-.12-.6,0-.29,.05-.65,.15-1.06,.1-.41,.21-.69,.33-.84,.13-.16,.33-.25,.58-.26,.27-.03,.81-.04,1.62-.04Z"/><path class="f" d="M23.78,37.83c.75,0,1.33,.05,1.74,.14,.29,.07,.51,.17,.65,.32,.14,.15,.24,.37,.31,.68,.04,.17,.06,.77,.06,1.78,0,2.28-.05,3.83-.14,4.66-.04,.44-.1,.74-.18,.9s-.24,.27-.47,.32c-.23,.05-.68,.09-1.33,.12-.17,.01-.46,.02-.86,.02-.29,0-.49-.03-.58-.09s-.19-.2-.28-.41c-.09-.21-.17-.32-.22-.32s-.26,.09-.62,.26c-.56,.27-1.09,.4-1.6,.4-.53,0-1.09-.2-1.68-.6-.59-.4-1.08-.92-1.47-1.56-.39-.64-.59-1.29-.59-1.96,0-.29,.03-.53,.08-.7l.06-.3,.04-.22c.04-.31,.27-.79,.7-1.44,.65-1.01,1.49-1.64,2.5-1.88,.2-.04,.41-.06,.62-.06,.75,0,1.37,.19,1.86,.56,.13,.09,.23,.14,.3,.14s.1-.05,.1-.14c0-.07,.06-.17,.17-.31s.22-.23,.31-.27c.05-.03,.23-.04,.52-.04Zm-2.12,3c-.32,0-.61,.09-.86,.28-.25,.19-.43,.44-.52,.76-.04,.12-.06,.25-.06,.38,0,.35,.14,.62,.42,.83,.28,.21,.66,.31,1.14,.31,.25,0,.42-.01,.51-.04,.09-.03,.14-.09,.17-.18,.03-.09,.06-.29,.1-.6,.05-.36,.08-.71,.08-1.06,0-.2-.01-.32-.04-.37-.03-.05-.12-.1-.28-.17-.19-.09-.41-.14-.66-.14Z"/><path class="f" d="M28.72,37.89h.6c.89,.03,1.41,.06,1.54,.1,.19,.07,.28,.24,.28,.52,0,.23,.03,.34,.08,.34l.7-.16c.44-.12,.88-.18,1.32-.18,.77,0,1.45,.17,2.04,.52,.21,.12,.47,.34,.77,.67s.53,.62,.69,.89c.31,.59,.46,1.19,.46,1.82,0,1.15-.44,2.16-1.32,3.04-.44,.44-.85,.75-1.23,.93-.38,.18-.82,.27-1.31,.27-.44,0-1.1-.14-1.98-.42h-.02c-.07,0-.11,.52-.14,1.56l-.02,1.6-.22,.2-.22,.18-1.5-.02c-.71-.03-1.14-.05-1.3-.06-.19-.03-.31-.07-.36-.14-.05-.08-.09-.41-.12-1-.01-.39-.02-1.94-.02-4.66,0-3.68,.02-5.58,.06-5.7,.05-.12,.14-.21,.26-.26,.13-.03,.45-.04,.96-.04Zm4.04,2.96c-.15,0-.28,.02-.4,.06-.19,.08-.39,.22-.62,.42l-.38,.36,.08,.74c.07,.48,.12,.76,.16,.84,.04,.12,.14,.21,.29,.26s.33,.08,.53,.08c.41,0,.76-.14,1.04-.41,.28-.27,.42-.62,.42-1.05,0-.51-.15-.88-.46-1.12-.16-.12-.38-.18-.66-.18Z"/><path class="f" d="M40.4,38.89h.76c.19,0,.34,.02,.46,.06,.11,.04,.18,.09,.21,.14,.03,.05,.06,.16,.07,.32,.03,.35,.04,1.58,.04,3.7,0,2.23-.03,3.37-.08,3.42-.11,.11-.53,.16-1.26,.16h-.72l-.54-.02c-.32,0-.51,0-.56-.02-.13-.01-.24-.06-.32-.14l-.16-.16-.02-2.7v-.84c0-2.33,.08-3.59,.24-3.76,.07-.08,.49-.13,1.28-.14,.25,0,.45,0,.6-.02Zm-.28-3.7c.44,0,.82,.15,1.14,.46,.32,.31,.48,.65,.48,1.02v.26c-.03,.39-.18,.69-.46,.91-.28,.22-.65,.33-1.12,.33h-.12c-.47-.03-.84-.16-1.13-.41-.29-.25-.43-.56-.43-.95,0-.2,.03-.38,.1-.55,.07-.17,.19-.35,.38-.55,.33-.35,.72-.52,1.16-.52Z"/><path class="f" d="M47,37.23h.36c.39,0,.82,.05,1.31,.15,.49,.1,.93,.21,1.33,.33s.63,.2,.7,.24c.13,.09,.2,.24,.2,.44,0,.21-.06,.53-.18,.94-.12,.41-.22,.71-.3,.9-.07,.15-.17,.22-.3,.22s-.34-.07-.62-.2c-.59-.24-1.06-.36-1.42-.36-.11,0-.21,.02-.32,.06-.11,.04-.16,.09-.16,.16s.05,.14,.14,.22c.13,.11,.57,.21,1.32,.32,.61,.08,1.1,.22,1.45,.43,.35,.21,.64,.53,.87,.97,.2,.36,.3,.79,.3,1.28,0,.57-.15,1.12-.45,1.65-.3,.53-.71,.95-1.23,1.27-.57,.33-1.29,.5-2.16,.5s-1.69-.16-2.52-.47c-.83-.31-1.48-.72-1.96-1.23-.2-.23-.3-.39-.3-.5s.12-.3,.36-.59c.24-.29,.5-.56,.77-.83,.27-.27,.44-.4,.49-.4,.04,0,.21,.11,.5,.34,.59,.44,1.19,.68,1.82,.72h.26c.21,0,.37-.04,.48-.13,.11-.09,.16-.2,.16-.33,0-.17-.11-.32-.34-.45-.23-.13-.61-.23-1.16-.31-1.4-.23-2.31-.77-2.72-1.62-.13-.25-.2-.54-.2-.86,0-.37,.11-.76,.32-1.15,.21-.39,.5-.74,.87-1.03s.77-.49,1.21-.6c.31-.05,.68-.08,1.12-.08Z"/><path class="f" d="M54.26,37.59c1.23,0,1.91,.07,2.04,.2,.03,.03,.04,.17,.04,.44,0,.32-.01,.71-.04,1.16-.03,.45-.04,.93-.04,1.42,0,1.04,.08,1.78,.23,2.23,.15,.45,.45,.67,.89,.67,.37,0,.66-.19,.86-.58,.25-.47,.39-1.51,.4-3.14,.04-1.35,.09-2.05,.14-2.1,.07-.07,.34-.13,.82-.2,.48-.07,.95-.1,1.4-.1,.35,0,.63,.02,.84,.05,.21,.03,.35,.1,.42,.21,.15,.21,.22,1.25,.22,3.1,0,3.41-.05,5.25-.16,5.5-.08,.2-.39,.3-.94,.3-.23,0-.67-.03-1.32-.08-.23,0-.41,0-.54-.03s-.26-.05-.38-.09c-.13-.04-.23-.09-.29-.15s-.12-.16-.17-.29c-.11-.25-.22-.31-.34-.16-.08,.09-.33,.23-.76,.4s-.77,.29-1.04,.34c-.19,.03-.39,.04-.6,.04-.56,0-1.08-.12-1.56-.35-.48-.23-.84-.55-1.08-.95-.09-.16-.21-.47-.36-.92-.11-.45-.16-1.03-.16-1.74v-1.02c.03-2.59,.19-3.95,.5-4.08,.15-.05,.47-.08,.98-.08Z"/><path class="f" d="M73.4,36.29c.64,0,1.2,.08,1.68,.23s.86,.37,1.14,.65c.29,.28,.44,.51,.44,.7,0,.29-.26,.73-.78,1.32l-.34,.38-.62-.22c-.35-.12-.63-.18-.84-.18-.2,0-.4,.09-.6,.28-.2,.19-.3,.39-.3,.6,0,.03,0,.05,.02,.06,.03,.01,.19,.05,.48,.12,.4,.05,.66,.15,.77,.29s.17,.44,.17,.89c0,.93-.09,1.47-.26,1.6-.09,.09-.32,.15-.68,.16l-.54,.04-.06,.34c-.04,.36-.06,.8-.06,1.32,0,.75-.03,1.53-.1,2.36-.07,.83-.14,1.31-.22,1.44-.08,.15-.36,.22-.84,.22h-.22c-.48,0-.99-.05-1.54-.14-.35-.05-.57-.1-.68-.15-.11-.05-.18-.16-.21-.35-.03-.19-.05-.55-.05-1.08v-1.38l.04-2.5-.32-.06c-.29-.05-.48-.13-.57-.23s-.13-.32-.13-.67c0-.31,0-.52,.02-.64,.01-.71,.09-1.17,.22-1.4,.12-.2,.36-.3,.72-.3,.23,0,.35-.06,.36-.18,.12-.61,.26-1.09,.42-1.44,.16-.35,.36-.64,.6-.88s.59-.47,1.05-.7c.46-.23,.9-.38,1.31-.46,.24-.03,.41-.04,.52-.04Z"/><path class="f" d="M81.68,37.45c.45,0,.89,.03,1.32,.1,1,.19,1.85,.58,2.56,1.18,.71,.6,1.14,1.3,1.3,2.1,.04,.17,.06,.4,.06,.68,0,.81-.12,1.53-.37,2.15-.25,.62-.65,1.2-1.21,1.75-.52,.51-1.05,.86-1.6,1.05-.55,.19-1.11,.29-1.7,.29-1.03,0-1.96-.25-2.8-.74-.84-.49-1.5-1.11-1.97-1.84-.47-.73-.71-1.43-.71-2.1,0-.21,.03-.53,.1-.96,.44-2.15,1.67-3.34,3.68-3.58,.48-.05,.93-.08,1.34-.08Zm.16,3.18c-.19,0-.35,.05-.48,.14-.48,.29-.72,.71-.72,1.26,0,.2,.05,.43,.16,.68,.24,.49,.62,.74,1.14,.74,.28,0,.52-.09,.72-.27,.2-.18,.32-.41,.36-.69,.01-.04,.02-.12,.02-.24,0-.32-.07-.63-.22-.92-.15-.29-.33-.49-.54-.6-.16-.07-.31-.1-.44-.1Z"/><path class="f" d="M94.42,37.47c.92,0,1.64,.25,2.16,.76,.52,.51,.89,1.15,1.12,1.92,.11,.36,.17,1.43,.18,3.2v1.26c0,.92-.04,1.42-.12,1.5-.05,.08-.16,.13-.32,.14-.16,.03-.64,.05-1.44,.06l-1.64,.04-.08-.18c-.01-.05-.05-.7-.12-1.94-.01-1-.06-1.77-.14-2.3-.08-.39-.23-.71-.46-.96-.12-.12-.28-.18-.48-.18-.97,0-1.46,.91-1.46,2.74,0,.52,0,.87,.02,1.06,.01,.25,.02,.66,.02,1.22,0,.35-.02,.54-.06,.58s-.42,.07-1.13,.1-1.34,.04-1.87,.04c-.21,0-.36-.01-.43-.04-.07-.03-.12-.09-.15-.18-.03-.09-.05-.26-.06-.5-.01-.16-.02-.77-.02-1.82l-.02-1.8v-1.98l-.02-1.44c0-.37,.02-.64,.07-.79,.05-.15,.14-.25,.29-.3,.15-.05,.39-.07,.74-.07h1c.73,0,1.18,.03,1.34,.1,.13,.05,.2,.27,.2,.64,0,.32,.02,.48,.06,.48s.19-.13,.46-.38c.47-.43,.95-.71,1.46-.86,.29-.08,.59-.12,.9-.12Z"/><path class="f" d="M103.84,37.05h.26c.55,.03,.98,.12,1.3,.28,.32,.16,.71,.47,1.18,.94,.72,.72,1.18,1.49,1.38,2.32,.07,.33,.1,.61,.1,.84,0,.81-.13,1.27-.4,1.38h-3.32c-1.05,0-1.58,0-1.58,.02,0,.16,.15,.33,.46,.51,.31,.18,.67,.32,1.08,.41,.23,.04,.43,.06,.62,.06,.31,0,.71-.08,1.22-.24,.39-.11,.63-.16,.74-.16,.13,0,.24,.04,.32,.12,.09,.13,.23,.38,.42,.74s.28,.61,.28,.76c0,.29-.25,.58-.74,.86-.48,.29-.98,.5-1.51,.62-.53,.12-1.15,.18-1.87,.18-.88,0-1.56-.08-2.04-.24-.48-.16-.99-.51-1.54-1.04s-.92-1.05-1.12-1.56c-.2-.51-.3-1.1-.3-1.78,0-.75,.11-1.43,.33-2.04,.22-.61,.64-1.18,1.25-1.7,.64-.56,1.45-.95,2.44-1.18,.33-.07,.68-.1,1.04-.1Zm-.06,2.72c-.29,0-.55,.09-.77,.26s-.34,.39-.35,.66l-.02,.24,.98,.06,.82,.04h.1c.05,0,.09,0,.1-.02h.08c.05-.01,.08-.09,.08-.24,0-.17-.04-.34-.12-.5-.17-.33-.47-.5-.9-.5Z"/><path class="f" d="M112.86,35.09c.75,0,1.21,.01,1.4,.04,.23,.05,.36,.1,.41,.15,.05,.05,.07,.15,.07,.31l-.04,1.06-.04,.64-.02,.24,.96,.02c.19,0,.32,0,.4,.02,.33,0,.55,.03,.66,.08,.11,.05,.17,.19,.2,.42,.03,.23,.04,.69,.04,1.4v.34c0,.37-.02,.63-.05,.76-.03,.13-.11,.22-.22,.26s-.33,.06-.65,.06h-1.28l-.06,.42c-.03,.32-.04,.52-.04,.6,0,1.39,.35,2.08,1.06,2.08,.15,0,.34-.07,.58-.21,.24-.14,.39-.24,.44-.31,.04-.05,.09-.08,.14-.08,.12,0,.27,.09,.46,.28,.21,.21,.42,.47,.61,.77,.19,.3,.29,.5,.29,.61,0,.16-.18,.39-.55,.68-.37,.29-.8,.55-1.29,.78-.64,.29-1.33,.44-2.08,.44-.47,0-.87-.08-1.21-.24-.34-.16-.7-.44-1.09-.84-.45-.45-.78-.94-.98-1.46-.2-.52-.3-1.31-.3-2.36v-.74s-.02-.11-.02-.2c0-.07-.01-.11-.04-.14l-.08-.08s-.11-.06-.28-.06l-.24-.02h-.32c-.28-.03-.46-.05-.54-.06-.08-.01-.15-.07-.22-.18-.05-.09-.08-.27-.08-.52,0-.36,0-.61,.02-.74,.03-.4,.04-.65,.04-.76,.01-.17,.02-.32,.03-.44,0-.12,.02-.2,.03-.24l.08-.28,.82-.04c.4-.01,.64-.03,.72-.06,.07-.03,.11-.07,.12-.12,.01-.29,.04-.7,.09-1.22,.05-.52,.09-.8,.13-.84,.07-.08,.22-.14,.46-.18,.24-.03,.73-.04,1.46-.04Z"/><path class="f" d="M119.78,37.64c.56-.15,1.03-.23,1.42-.23,.28,0,.5,.05,.67,.15,.17,.1,.33,.29,.49,.57,.19,.4,.48,1.17,.88,2.32,.32,.89,.49,1.34,.52,1.34,.05,0,.41-.66,1.06-1.98,.6-1.17,.98-1.84,1.14-2,.16-.19,.46-.28,.9-.28,.65,0,1.31,.15,1.96,.46,.21,.09,.32,.23,.32,.42,0,.25-.38,1.15-1.14,2.7-1.08,2.17-2.25,4.27-3.52,6.3-.41,.65-.76,1.17-1.04,1.55-.28,.38-.61,.76-1,1.13-.79,.77-1.77,1.16-2.96,1.16-.32,0-.71-.04-1.17-.13-.46-.09-.84-.21-1.15-.37-.35-.16-.52-.33-.52-.5,0-.15,.09-.39,.27-.74,.18-.35,.38-.67,.61-.97,.23-.3,.39-.46,.5-.49h.08c.13,0,.27,.03,.42,.08,.17,.07,.38,.1,.62,.1,.76,0,1.43-.48,2-1.44,.17-.29,.26-.52,.26-.68,0-.25-.27-.99-.82-2.2-.51-1.12-.96-2.25-1.37-3.39s-.61-1.85-.61-2.13c0-.15,.05-.26,.16-.34,.12-.12,.46-.26,1.02-.41Z"/><path class="f" d="M134.7,37.51c.52,0,1,.05,1.45,.14,.45,.09,.94,.27,1.47,.54,.56,.28,.84,.49,.84,.64,0,.09-.13,.36-.4,.8s-.52,.8-.76,1.08c-.17,.21-.33,.32-.48,.32-.12,0-.29-.07-.52-.22-.49-.32-.97-.48-1.44-.48-.29,0-.52,.04-.69,.12-.17,.08-.34,.23-.51,.44-.39,.51-.58,1.03-.58,1.58,0,.15,.03,.29,.08,.44,.23,.56,.69,.84,1.4,.84l.12-.02h.12c.4-.04,.91-.27,1.52-.68,.25-.17,.41-.26,.48-.26,.04,0,.09,.02,.16,.06,.13,.08,.34,.3,.61,.67,.27,.37,.49,.72,.65,1.05,.16,.33,.24,.55,.24,.66,0,.19-.15,.37-.46,.56-.97,.65-2.25,.98-3.82,.98-.33,0-.71-.03-1.14-.1-.77-.16-1.48-.48-2.12-.97-.64-.49-1.05-1.04-1.24-1.67-.11-.39-.16-.85-.16-1.4,0-.43,.03-.75,.08-.98,.19-.81,.53-1.54,1.04-2.18,.51-.64,1.01-1.11,1.52-1.4,.41-.24,.93-.41,1.54-.5,.28-.04,.61-.06,1-.06Z"/><path class="f" d="M142.98,37.85c2.8,0,4.47,.07,5,.2,.43,.11,.64,.4,.64,.88v.12c0,.43-.08,.75-.24,.98-.16,.21-.71,.81-1.66,1.78l-1.78,1.78,.92-.06c.59-.05,1.06-.08,1.42-.08,.31,0,.52,.07,.64,.2,.12,.13,.18,.35,.18,.66v.24c-.01,.08-.02,.18-.02,.3-.03,.56-.07,.95-.12,1.16-.07,.24-.18,.41-.34,.52-.21,.13-1.94,.21-5.18,.24h-.54c-1.32,0-2.11-.13-2.36-.38-.11-.11-.16-.23-.16-.38,0-.17,0-.3,.02-.38,.03-.37,.1-.67,.22-.89,.12-.22,.34-.47,.66-.75,.4-.32,.93-.84,1.59-1.57,.66-.73,.99-1.14,.99-1.25,0-.05-.35-.09-1.06-.12-.52-.01-.87-.05-1.04-.1-.15-.04-.26-.14-.34-.3-.08-.16-.12-.36-.12-.6,0-.29,.05-.65,.15-1.06,.1-.41,.21-.69,.33-.84,.13-.16,.33-.25,.58-.26,.27-.03,.81-.04,1.62-.04Z"/><path class="f" d="M156.04,37.47c.92,0,1.64,.25,2.16,.76,.52,.51,.89,1.15,1.12,1.92,.11,.36,.17,1.43,.18,3.2v1.26c0,.92-.04,1.42-.12,1.5-.05,.08-.16,.13-.32,.14-.16,.03-.64,.05-1.44,.06l-1.64,.04-.08-.18c-.01-.05-.05-.7-.12-1.94-.01-1-.06-1.77-.14-2.3-.08-.39-.23-.71-.46-.96-.12-.12-.28-.18-.48-.18-.97,0-1.46,.91-1.46,2.74,0,.52,0,.87,.02,1.06,.01,.25,.02,.66,.02,1.22,0,.35-.02,.54-.06,.58s-.42,.07-1.13,.1-1.34,.04-1.87,.04c-.21,0-.36-.01-.43-.04-.07-.03-.12-.09-.15-.18-.03-.09-.05-.26-.06-.5-.01-.16-.02-.77-.02-1.82l-.02-1.8v-1.98l-.02-1.44c0-.37,.02-.64,.07-.79,.05-.15,.14-.25,.29-.3,.15-.05,.39-.07,.74-.07h1c.73,0,1.18,.03,1.34,.1,.13,.05,.2,.27,.2,.64,0,.32,.02,.48,.06,.48s.19-.13,.46-.38c.47-.43,.95-.71,1.46-.86,.29-.08,.59-.12,.9-.12Z"/><path class="f" d="M165.46,37.05h.26c.55,.03,.98,.12,1.3,.28,.32,.16,.71,.47,1.18,.94,.72,.72,1.18,1.49,1.38,2.32,.07,.33,.1,.61,.1,.84,0,.81-.13,1.27-.4,1.38h-3.32c-1.05,0-1.58,0-1.58,.02,0,.16,.15,.33,.46,.51,.31,.18,.67,.32,1.08,.41,.23,.04,.43,.06,.62,.06,.31,0,.71-.08,1.22-.24,.39-.11,.63-.16,.74-.16,.13,0,.24,.04,.32,.12,.09,.13,.23,.38,.42,.74s.28,.61,.28,.76c0,.29-.25,.58-.74,.86-.48,.29-.98,.5-1.51,.62-.53,.12-1.15,.18-1.87,.18-.88,0-1.56-.08-2.04-.24-.48-.16-.99-.51-1.54-1.04s-.92-1.05-1.12-1.56c-.2-.51-.3-1.1-.3-1.78,0-.75,.11-1.43,.33-2.04,.22-.61,.64-1.18,1.25-1.7,.64-.56,1.45-.95,2.44-1.18,.33-.07,.68-.1,1.04-.1Zm-.06,2.72c-.29,0-.55,.09-.77,.26s-.34,.39-.35,.66l-.02,.24,.98,.06,.82,.04h.1c.05,0,.09,0,.1-.02h.08c.05-.01,.08-.09,.08-.24,0-.17-.04-.34-.12-.5-.17-.33-.47-.5-.9-.5Z"/><path class="f" d="M174.56,38.07c.72,0,1.17,.05,1.36,.14,.2,.11,.4,.23,.6,.36l.3,.18s.08-.01,.12-.08c.09-.17,.18-.29,.25-.36,.07-.07,.17-.11,.29-.13s.34-.04,.66-.05h.36c.88,0,1.47,.09,1.78,.26,.19,.11,.3,.35,.34,.74,.04,.37,.06,1.46,.06,3.26,0,2.08-.03,3.47-.1,4.18-.08,.64-.3,1.32-.66,2.04-.67,1.37-1.67,2.21-3.02,2.5-.43,.09-1.01,.14-1.76,.14-.67,0-1.19-.04-1.57-.13-.38-.09-.78-.24-1.21-.45-.36-.17-.62-.34-.78-.5-.13-.13-.2-.27-.2-.4,0-.09,0-.15,.02-.18,.04-.27,.2-.67,.49-1.21,.29-.54,.48-.81,.59-.81,.09,0,.35,.09,.78,.26,.59,.25,1.12,.38,1.6,.38s.87-.16,1.17-.49c.3-.33,.5-.79,.61-1.39l.04-.28-.36,.18c-.63,.29-1.31,.44-2.06,.44-1.57,0-2.69-.75-3.36-2.26-.33-.72-.5-1.5-.5-2.34,0-1.44,.5-2.51,1.5-3.22,.45-.32,.99-.55,1.6-.7,.2-.05,.55-.08,1.06-.08Zm1.62,3.22c-.52,0-.92,.12-1.21,.37-.29,.25-.43,.56-.43,.95,0,.17,.04,.33,.12,.48,.24,.48,.65,.72,1.22,.72,.23,0,.45-.04,.66-.12l.2-.06v-.78c0-.89-.07-1.39-.22-1.5-.08-.04-.19-.06-.34-.06Z"/><path class="f" d="M186.7,37.45c.45,0,.89,.03,1.32,.1,1,.19,1.85,.58,2.56,1.18,.71,.6,1.14,1.3,1.3,2.1,.04,.17,.06,.4,.06,.68,0,.81-.12,1.53-.37,2.15-.25,.62-.65,1.2-1.21,1.75-.52,.51-1.05,.86-1.6,1.05-.55,.19-1.11,.29-1.7,.29-1.03,0-1.96-.25-2.8-.74-.84-.49-1.5-1.11-1.97-1.84-.47-.73-.71-1.43-.71-2.1,0-.21,.03-.53,.1-.96,.44-2.15,1.67-3.34,3.68-3.58,.48-.05,.93-.08,1.34-.08Zm.16,3.18c-.19,0-.35,.05-.48,.14-.48,.29-.72,.71-.72,1.26,0,.2,.05,.43,.16,.68,.24,.49,.62,.74,1.14,.74,.28,0,.52-.09,.72-.27,.2-.18,.32-.41,.36-.69,.01-.04,.02-.12,.02-.24,0-.32-.07-.63-.22-.92-.15-.29-.33-.49-.54-.6-.16-.07-.31-.1-.44-.1Z"/></g></svg>